<svg data-v-423bf9ae="" xmlns="http://www.w3.org/2000/svg" viewBox="0 0 417 112" class="iconLeft"><!----><!----><!----><g data-v-423bf9ae="" id="194701d7-40f6-4285-961d-41fc14d0a48d" fill="black" transform="matrix(5.3191490620891875,0,0,5.3191490620891875,119.82522623343243,29.22688072095976)"><path d="M0.84 8.40L0.84 3.08L1.12 3.08L1.12 8.33L1.12 8.33Q1.12 9.39 1.61 9.85L1.61 9.85L1.61 9.85Q2.10 10.30 3.09 10.30L3.09 10.30L3.09 10.30Q4.79 10.30 5.60 9.00L5.60 9.00L5.60 3.08L5.88 3.08L5.88 8.82L5.95 10.50L5.74 10.50L5.63 9.37L5.63 9.37Q4.79 10.58 3.07 10.58L3.07 10.58L3.07 10.58Q0.84 10.58 0.84 8.40L0.84 8.40ZM7.35 10.50L7.35 10.29L11.89 3.35L10.29 3.36L7.49 3.36L7.49 3.08L12.25 3.08L12.25 3.29L7.71 10.23L9.31 10.22L12.39 10.22L12.39 10.50L7.35 10.50ZM22.54 5.04L22.54 10.50L22.26 10.50L22.26 5.11L22.26 5.11Q22.26 4.13 21.85 3.70L21.85 3.70L21.85 3.70Q21.43 3.28 20.57 3.28L20.57 3.28L20.57 3.28Q19.15 3.28 18.34 4.58L18.34 4.58L18.34 10.50L18.06 10.50L18.06 5.11L18.06 5.11Q18.06 4.13 17.65 3.70L17.65 3.70L17.65 3.70Q17.23 3.28 16.37 3.28L16.37 3.28L16.37 3.28Q14.95 3.28 14.14 4.58L14.14 4.58L14.14 10.50L13.86 10.50L13.86 4.76L13.79 3.08L14 3.08L14.10 4.21L14.10 4.21Q14.91 3.00 16.39 3.00L16.39 3.00L16.39 3.00Q17.93 3.00 18.26 4.28L18.26 4.28L18.26 4.28Q19.07 3.00 20.59 3.00L20.59 3.00L20.59 3.00Q22.54 3.00 22.54 5.04L22.54 5.04ZM30.03 6.65L30.03 6.93L24.43 6.93L24.43 6.93Q24.43 8.47 25.11 9.39L25.11 9.39L25.11 9.39Q25.79 10.30 27.16 10.30L27.16 10.30L27.16 10.30Q28.48 10.30 29.11 9.65L29.11 9.65L29.11 9.65Q29.75 8.99 29.75 8.12L29.75 8.12L30.03 8.12L30.03 8.19L30.03 8.19Q30.03 9.11 29.30 9.85L29.30 9.85L29.30 9.85Q28.57 10.58 27.16 10.58L27.16 10.58L27.16 10.58Q25.65 10.58 24.90 9.58L24.90 9.58L24.90 9.58Q24.15 8.57 24.15 6.93L24.15 6.93L24.15 6.65L24.15 6.65Q24.15 5.01 24.88 4.00L24.88 4.00L24.88 4.00Q25.61 3.00 27.09 3.00L27.09 3.00L27.09 3.00Q28.57 3.00 29.30 4.00L29.30 4.00L29.30 4.00Q30.03 5.01 30.03 6.65L30.03 6.65ZM29.08 4.19L29.08 4.19L29.08 4.19Q28.41 3.28 27.09 3.28L27.09 3.28L27.09 3.28Q25.77 3.28 25.10 4.19L25.10 4.19L25.10 4.19Q24.43 5.11 24.43 6.65L24.43 6.65L29.75 6.65L29.75 6.65Q29.75 5.11 29.08 4.19ZM34.41 3.00L34.41 3.00L34.41 3.00Q35.81 3.00 36.68 4.13L36.68 4.13L36.68-0.70L36.96-0.70L36.96 8.82L37.03 10.50L36.82 10.50L36.72 9.39L36.72 9.39Q35.87 10.58 34.41 10.58L34.41 10.58L34.41 10.58Q33.03 10.58 32.30 9.62L32.30 9.62L32.30 9.62Q31.57 8.65 31.57 6.93L31.57 6.93L31.57 6.65L31.57 6.65Q31.57 4.93 32.30 3.96L32.30 3.96L32.30 3.96Q33.03 3.00 34.41 3.00ZM36.68 9.00L36.68 4.58L36.68 4.58Q35.83 3.28 34.41 3.28L34.41 3.28L34.41 3.28Q33.15 3.28 32.50 4.17L32.50 4.17L32.50 4.17Q31.85 5.07 31.85 6.65L31.85 6.65L31.85 6.93L31.85 6.93Q31.85 8.51 32.50 9.41L32.50 9.41L32.50 9.41Q33.15 10.30 34.41 10.30L34.41 10.30L34.41 10.30Q35.83 10.30 36.68 9.00L36.68 9.00ZM39.34 10.50L39.06 10.50L39.06 3.08L39.34 3.08L39.34 10.50ZM38.92 0.42L39.48 0.42L39.48 0.98L38.92 0.98L38.92 0.42ZM41.23 6.93L41.23 6.65L41.23 6.65Q41.23 4.98 41.97 3.99L41.97 3.99L41.97 3.99Q42.71 3.00 44.21 3.00L44.21 3.00L44.21 3.00Q45.53 3.00 46.14 3.75L46.14 3.75L46.14 3.75Q46.76 4.49 46.76 5.53L46.76 5.53L46.76 5.67L46.48 5.67L46.48 5.67Q46.48 4.59 45.93 3.93L45.93 3.93L45.93 3.93Q45.37 3.28 44.21 3.28L44.21 3.28L44.21 3.28Q42.88 3.28 42.20 4.18L42.20 4.18L42.20 4.18Q41.51 5.08 41.51 6.65L41.51 6.65L41.51 6.93L41.51 6.93Q41.51 8.50 42.20 9.40L42.20 9.40L42.20 9.40Q42.88 10.30 44.21 10.30L44.21 10.30L44.21 10.30Q45.37 10.30 45.93 9.70L45.93 9.70L45.93 9.70Q46.48 9.09 46.48 8.05L46.48 8.05L46.76 8.05L46.76 8.19L46.76 8.19Q46.76 9.17 46.14 9.88L46.14 9.88L46.14 9.88Q45.53 10.58 44.21 10.58L44.21 10.58L44.21 10.58Q42.71 10.58 41.97 9.59L41.97 9.59L41.97 9.59Q41.23 8.60 41.23 6.93L41.23 6.93ZM48.26 8.75L48.26 8.75L48.26 8.61L48.26 8.61Q48.26 8.01 48.45 7.59L48.45 7.59L48.45 7.59Q48.64 7.18 49.01 6.96L49.01 6.96L49.01 6.96Q49.38 6.73 49.71 6.64L49.71 6.64L49.71 6.64Q50.05 6.54 50.54 6.47L50.54 6.47L53.06 6.06L53.06 5.60L53.06 5.60Q53.06 4.49 52.63 3.88L52.63 3.88L52.63 3.88Q52.21 3.28 50.96 3.28L50.96 3.28L50.96 3.28Q49.71 3.28 49.29 3.88L49.29 3.88L49.29 3.88Q48.86 4.49 48.86 5.60L48.86 5.60L48.58 5.60L48.58 5.45L48.58 5.45Q48.58 3.00 50.96 3.00L50.96 3.00L50.96 3.00Q53.34 3.00 53.34 5.45L53.34 5.45L53.34 8.82L53.41 10.50L53.20 10.50L53.09 9.32L53.09 9.32Q52.19 10.58 50.33 10.58L50.33 10.58L50.33 10.58Q49.41 10.58 48.83 10.10L48.83 10.10L48.83 10.10Q48.26 9.62 48.26 8.75ZM50.34 10.30L50.34 10.30L50.34 10.30Q52.28 10.30 53.06 8.85L53.06 8.85L53.06 6.33L50.44 6.75L50.44 6.75Q49.52 6.92 49.03 7.29L49.03 7.29L49.03 7.29Q48.54 7.67 48.54 8.60L48.54 8.60L48.54 8.75L48.54 8.75Q48.54 9.41 49.01 9.86L49.01 9.86L49.01 9.86Q49.48 10.30 50.34 10.30ZM55.72 10.50L55.44 10.50L55.44-0.70L55.72-0.70L55.72 10.50Z"></path></g><!----><g data-v-423bf9ae="" id="7fedecf9-7655-4a1e-a673-8afaf7a70080" transform="matrix(1.1105901930067275,0,0,1.1105901930067275,0.8533454339453286,0.49388350547981474)" stroke="none" fill="black"><path d="M35.579 11.06l-1.453.938s-.832-.015-2.587 1.25c-1.199.865-1.209 1.336-1.784 1.82s-1.996.337-1.996.337 1.603-.276 1.482-.699c-.05-.178-.429-.295-.999-.289-1.165.016-1.739-.21-1.739-.21s.52.07 1.573-.151c1.006-.212 1.731-.282 2.337-.706.604-.423 1.757-1.448 3.14-1.942 1.269-.454 2.026-.348 2.026-.348z"></path><path d="M76.599 19.38c-.687-3-1.763-5.728-3.103-7.906-3.025-4.92-6.964-8.58-12.423-10.327C50.987-2.08 44.45 2.595 42.275 3.366c-1.533.542-3.106-.485-5.566 1.168-1.053.708-5.214.846-8.148 1.17-2.418.269-1.675 3.309-1.434 3.954.252.673.676 1.16.676 1.16s-.06-.935.303-.933c.44.003 2.269 1.461 2.269 1.461s.494-1.458 1.648-1.467c1.638-.015 3.833.238 4.916.182 1.938-.103-1.301 2.208-1.301 2.208s-3.933 2.058-3.73 3.036c.209 1.012 2.804.945 3.348.847 2.157-.389 8.486-4.275 9.278-7.14.725-2.622 5.279-4.347 9.106-4.004 7.068.636 11.043 3.561 14.975 10.923.576 1.074.959 2.235 1.306 3.449h6.678zM46.954 21.316H0s2.904 12.101 36.869 17.507c6.019.958 6.212 5.062 6.212 5.97v.708c2.896-.364 5.427-.72 7.766-1.188.12-1.407.928-4.652 6.193-5.49 33.963-5.407 36.868-17.507 36.868-17.507H46.954z"></path><path d="M66.721 38.979a18.098 18.098 0 0 1-5.364 3.958c-6.052 2.965-11.619 3.761-19.243 4.699-1.234.152-19.666 2.421-19.666 12.041 0 8.327 14.723 10.67 18.686 11.15v-7.151c-2.702-.353-10.073-1.55-10.073-4.12 0-3.146 9.572-4.48 11.053-4.66 10.618-1.27 17.729-3.357 23.405-6.432 5.276-2.859 8.533-7.196 10.281-12.051-2.778.95-5.808 1.805-9.079 2.566zM52.788 65.146v7.037c1.494.286 4.17.982 4.17 2.321 0 1.854-10.084 3.771-16.861 6.998s-9.036 8.066-9.036 8.066 2.5-2.096 7.906-3.549 25.172-3.168 25.172-12.152c0-6.425-8.423-8.273-11.351-8.721zM70.431 95.68c-4.926-1.635-12.332-2.221-16.498-4.336-2.16-1.096-3.127-2.773-3.106-4.861.002-.159.003-.47.004-.887-2.6.642-5.161 1.123-7.344 1.532l-.442.083c-.191 1.751-1.166 3.168-3.068 4.133-4.165 2.115-11.572 2.701-16.499 4.336-5.137 1.707-6.535 4.297-6.535 4.297H76.968c-.001 0-1.402-2.59-6.537-4.297z"></path><path d="M43.075 56.791c-.003 6.816-.006 15.178-.004 21.313 1.956-.734 3.958-1.399 5.819-2.007.611-.199 1.28-.42 1.948-.644.001-6.177-.003-13.784-.006-19.896-2.389.477-4.964.884-7.757 1.234z"></path></g><!----></svg>