<svg data-v-fde0c5aa="" xmlns="http://www.w3.org/2000/svg" viewBox="0 0 300 300" class="font"><!----><defs data-v-fde0c5aa=""><!----></defs><rect data-v-fde0c5aa="" fill="#E5EAFE" x="0" y="0" width="300px" height="300px" class="logo-background-square"></rect><defs data-v-fde0c5aa=""><linearGradient data-v-fde0c5aa="" gradientTransform="rotate(25)" id="3f97eab7-a1ea-4428-95ff-9c2c91521bc9" x1="0%" y1="0%" x2="100%" y2="0%"><stop data-v-fde0c5aa="" offset="0%" stop-color="#5106FF" stop-opacity="1"></stop><stop data-v-fde0c5aa="" offset="100%" stop-color="#61CBF2" stop-opacity="1"></stop></linearGradient></defs><g data-v-fde0c5aa="" id="707bb95f-6b06-4cf0-922c-74348de2df95" fill="url(#3f97eab7-a1ea-4428-95ff-9c2c91521bc9)" transform="matrix(4.00874627766394,0,0,4.00874627766394,36.63265299295595,130.19679387577753)"><path d="M0.84 8.40L0.84 3.08L1.12 3.08L1.12 8.33L1.12 8.33Q1.12 9.39 1.61 9.85L1.61 9.85L1.61 9.85Q2.10 10.30 3.09 10.30L3.09 10.30L3.09 10.30Q4.79 10.30 5.60 9.00L5.60 9.00L5.60 3.08L5.88 3.08L5.88 8.82L5.95 10.50L5.74 10.50L5.63 9.37L5.63 9.37Q4.79 10.58 3.07 10.58L3.07 10.58L3.07 10.58Q0.84 10.58 0.84 8.40L0.84 8.40ZM7.35 10.50L7.35 10.29L11.89 3.35L10.29 3.36L7.49 3.36L7.49 3.08L12.25 3.08L12.25 3.29L7.71 10.23L9.31 10.22L12.39 10.22L12.39 10.50L7.35 10.50ZM22.54 5.04L22.54 10.50L22.26 10.50L22.26 5.11L22.26 5.11Q22.26 4.13 21.85 3.70L21.85 3.70L21.85 3.70Q21.43 3.28 20.57 3.28L20.57 3.28L20.57 3.28Q19.15 3.28 18.34 4.58L18.34 4.58L18.34 10.50L18.06 10.50L18.06 5.11L18.06 5.11Q18.06 4.13 17.65 3.70L17.65 3.70L17.65 3.70Q17.23 3.28 16.37 3.28L16.37 3.28L16.37 3.28Q14.95 3.28 14.14 4.58L14.14 4.58L14.14 10.50L13.86 10.50L13.86 4.76L13.79 3.08L14 3.08L14.10 4.21L14.10 4.21Q14.91 3.00 16.39 3.00L16.39 3.00L16.39 3.00Q17.93 3.00 18.26 4.28L18.26 4.28L18.26 4.28Q19.07 3.00 20.59 3.00L20.59 3.00L20.59 3.00Q22.54 3.00 22.54 5.04L22.54 5.04ZM30.03 6.65L30.03 6.93L24.43 6.93L24.43 6.93Q24.43 8.47 25.11 9.39L25.11 9.39L25.11 9.39Q25.79 10.30 27.16 10.30L27.16 10.30L27.16 10.30Q28.48 10.30 29.11 9.65L29.11 9.65L29.11 9.65Q29.75 8.99 29.75 8.12L29.75 8.12L30.03 8.12L30.03 8.19L30.03 8.19Q30.03 9.11 29.30 9.85L29.30 9.85L29.30 9.85Q28.57 10.58 27.16 10.58L27.16 10.58L27.16 10.58Q25.65 10.58 24.90 9.58L24.90 9.58L24.90 9.58Q24.15 8.57 24.15 6.93L24.15 6.93L24.15 6.65L24.15 6.65Q24.15 5.01 24.88 4.00L24.88 4.00L24.88 4.00Q25.61 3.00 27.09 3.00L27.09 3.00L27.09 3.00Q28.57 3.00 29.30 4.00L29.30 4.00L29.30 4.00Q30.03 5.01 30.03 6.65L30.03 6.65ZM29.08 4.19L29.08 4.19L29.08 4.19Q28.41 3.28 27.09 3.28L27.09 3.28L27.09 3.28Q25.77 3.28 25.10 4.19L25.10 4.19L25.10 4.19Q24.43 5.11 24.43 6.65L24.43 6.65L29.75 6.65L29.75 6.65Q29.75 5.11 29.08 4.19ZM34.41 3.00L34.41 3.00L34.41 3.00Q35.81 3.00 36.68 4.13L36.68 4.13L36.68-0.70L36.96-0.70L36.96 8.82L37.03 10.50L36.82 10.50L36.72 9.39L36.72 9.39Q35.87 10.58 34.41 10.58L34.41 10.58L34.41 10.58Q33.03 10.58 32.30 9.62L32.30 9.62L32.30 9.62Q31.57 8.65 31.57 6.93L31.57 6.93L31.57 6.65L31.57 6.65Q31.57 4.93 32.30 3.96L32.30 3.96L32.30 3.96Q33.03 3.00 34.41 3.00ZM36.68 9.00L36.68 4.58L36.68 4.58Q35.83 3.28 34.41 3.28L34.41 3.28L34.41 3.28Q33.15 3.28 32.50 4.17L32.50 4.17L32.50 4.17Q31.85 5.07 31.85 6.65L31.85 6.65L31.85 6.93L31.85 6.93Q31.85 8.51 32.50 9.41L32.50 9.41L32.50 9.41Q33.15 10.30 34.41 10.30L34.41 10.30L34.41 10.30Q35.83 10.30 36.68 9.00L36.68 9.00ZM39.34 10.50L39.06 10.50L39.06 3.08L39.34 3.08L39.34 10.50ZM38.92 0.42L39.48 0.42L39.48 0.98L38.92 0.98L38.92 0.42ZM41.23 6.93L41.23 6.65L41.23 6.65Q41.23 4.98 41.97 3.99L41.97 3.99L41.97 3.99Q42.71 3.00 44.21 3.00L44.21 3.00L44.21 3.00Q45.53 3.00 46.14 3.75L46.14 3.75L46.14 3.75Q46.76 4.49 46.76 5.53L46.76 5.53L46.76 5.67L46.48 5.67L46.48 5.67Q46.48 4.59 45.93 3.93L45.93 3.93L45.93 3.93Q45.37 3.28 44.21 3.28L44.21 3.28L44.21 3.28Q42.88 3.28 42.20 4.18L42.20 4.18L42.20 4.18Q41.51 5.08 41.51 6.65L41.51 6.65L41.51 6.93L41.51 6.93Q41.51 8.50 42.20 9.40L42.20 9.40L42.20 9.40Q42.88 10.30 44.21 10.30L44.21 10.30L44.21 10.30Q45.37 10.30 45.93 9.70L45.93 9.70L45.93 9.70Q46.48 9.09 46.48 8.05L46.48 8.05L46.76 8.05L46.76 8.19L46.76 8.19Q46.76 9.17 46.14 9.88L46.14 9.88L46.14 9.88Q45.53 10.58 44.21 10.58L44.21 10.58L44.21 10.58Q42.71 10.58 41.97 9.59L41.97 9.59L41.97 9.59Q41.23 8.60 41.23 6.93L41.23 6.93ZM48.26 8.75L48.26 8.75L48.26 8.61L48.26 8.61Q48.26 8.01 48.45 7.59L48.45 7.59L48.45 7.59Q48.64 7.18 49.01 6.96L49.01 6.96L49.01 6.96Q49.38 6.73 49.71 6.64L49.71 6.64L49.71 6.64Q50.05 6.54 50.54 6.47L50.54 6.47L53.06 6.06L53.06 5.60L53.06 5.60Q53.06 4.49 52.63 3.88L52.63 3.88L52.63 3.88Q52.21 3.28 50.96 3.28L50.96 3.28L50.96 3.28Q49.71 3.28 49.29 3.88L49.29 3.88L49.29 3.88Q48.86 4.49 48.86 5.60L48.86 5.60L48.58 5.60L48.58 5.45L48.58 5.45Q48.58 3.00 50.96 3.00L50.96 3.00L50.96 3.00Q53.34 3.00 53.34 5.45L53.34 5.45L53.34 8.82L53.41 10.50L53.20 10.50L53.09 9.32L53.09 9.32Q52.19 10.58 50.33 10.58L50.33 10.58L50.33 10.58Q49.41 10.58 48.83 10.10L48.83 10.10L48.83 10.10Q48.26 9.62 48.26 8.75ZM50.34 10.30L50.34 10.30L50.34 10.30Q52.28 10.30 53.06 8.85L53.06 8.85L53.06 6.33L50.44 6.75L50.44 6.75Q49.52 6.92 49.03 7.29L49.03 7.29L49.03 7.29Q48.54 7.67 48.54 8.60L48.54 8.60L48.54 8.75L48.54 8.75Q48.54 9.41 49.01 9.86L49.01 9.86L49.01 9.86Q49.48 10.30 50.34 10.30ZM55.72 10.50L55.44 10.50L55.44-0.70L55.72-0.70L55.72 10.50Z"></path></g><!----><!----></svg>